<svg width="28" height="28" viewBox="0 0 28 28" fill="none" xmlns="http://www.w3.org/2000/svg">
<g clip-path="url(#clip0_1_1896)">
<path d="M17.481 17.102H8.95103C8.84349 17.102 8.74035 17.1447 8.66431 17.2208C8.58826 17.2968 8.54553 17.4 8.54553 17.5075C8.54553 17.6151 8.58826 17.7182 8.66431 17.7943C8.74035 17.8703 8.84349 17.913 8.95103 17.913H17.481C17.5886 17.913 17.6917 17.8703 17.7678 17.7943C17.8438 17.7182 17.8865 17.6151 17.8865 17.5075C17.8865 17.4 17.8438 17.2968 17.7678 17.2208C17.6917 17.1447 17.5886 17.102 17.481 17.102Z" fill="#8C939F"/>
<path d="M17.481 13.858H8.95103C8.84349 13.858 8.74035 13.9007 8.66431 13.9768C8.58826 14.0528 8.54553 14.156 8.54553 14.2635C8.54553 14.371 8.58826 14.4742 8.66431 14.5502C8.74035 14.6263 8.84349 14.669 8.95103 14.669H17.481C17.5886 14.669 17.6917 14.6263 17.7678 14.5502C17.8438 14.4742 17.8865 14.371 17.8865 14.2635C17.8865 14.156 17.8438 14.0528 17.7678 13.9768C17.6917 13.9007 17.5886 13.858 17.481 13.858Z" fill="#8C939F"/>
<path d="M8.95201 11.021H13.428C13.5356 11.021 13.6387 10.9783 13.7147 10.9023C13.7908 10.8262 13.8335 10.7231 13.8335 10.6155C13.8335 10.508 13.7908 10.4048 13.7147 10.3288C13.6387 10.2527 13.5356 10.21 13.428 10.21H8.95201C8.84447 10.21 8.74131 10.2527 8.66527 10.3288C8.58922 10.4048 8.54651 10.508 8.54651 10.6155C8.54651 10.7231 8.58922 10.8262 8.66527 10.9023C8.74131 10.9783 8.84447 11.021 8.95201 11.021Z" fill="#8C939F"/>
<path d="M16.7422 22.9991L22.002 18.0332V7.0015C22.002 6.44974 21.5527 6.00052 21 6.00052H6C5.44922 6.00052 5 6.44974 5 7.0015V22.0025C5 22.5518 5.44922 22.9991 6 22.9991H16.7422ZM17.1406 23.9991H6C4.89844 23.9991 4 23.1035 4 22.0025V7.0015C4 5.89798 4.89844 5.00052 6 5.00052H21C22.1035 5.00052 23.002 5.89798 23.002 7.0015V18.4644L17.1406 23.9991Z" fill="#8C939F"/>
</g>
<defs>
<clipPath id="clip0_1_1896">
<rect width="19.002" height="18.999" fill="white" transform="translate(4 5)"/>
</clipPath>
</defs>
</svg>
