<svg width="28" height="28" viewBox="0 0 28 28" fill="none" xmlns="http://www.w3.org/2000/svg">
<g clip-path="url(#clip0_1_1818)">
<path fill-rule="evenodd" clip-rule="evenodd" d="M9.78947 5.05263C8.91745 5.05263 8.21053 5.75955 8.21053 6.63158C8.21053 7.50361 8.91745 8.21053 9.78947 8.21053H21.3684C22.2404 8.21053 22.9474 7.50361 22.9474 6.63158C22.9474 5.75955 22.2404 5.05263 21.3684 5.05263H9.78947ZM7.15789 6.63158C7.15789 5.1782 8.33609 4 9.78947 4H21.3684C22.8218 4 24 5.1782 24 6.63158C24 8.08496 22.8218 9.26316 21.3684 9.26316H9.78947C8.33609 9.26316 7.15789 8.08496 7.15789 6.63158ZM9.78947 19.7895C8.91745 19.7895 8.21053 20.4964 8.21053 21.3684C8.21053 22.2404 8.91745 22.9474 9.78947 22.9474H21.3684C22.2404 22.9474 22.9474 22.2404 22.9474 21.3684C22.9474 20.4964 22.2404 19.7895 21.3684 19.7895H9.78947ZM7.15789 21.3684C7.15789 19.915 8.33609 18.7368 9.78947 18.7368H21.3684C22.8218 18.7368 24 19.915 24 21.3684C24 22.8218 22.8218 24 21.3684 24H9.78947C8.33609 24 7.15789 22.8218 7.15789 21.3684ZM5.05263 14C5.05263 13.128 5.75955 12.4211 6.63158 12.4211H15.0526C15.9247 12.4211 16.6316 13.128 16.6316 14C16.6316 14.872 15.9247 15.5789 15.0526 15.5789H6.63158C5.75955 15.5789 5.05263 14.872 5.05263 14ZM6.63158 11.3684C5.1782 11.3684 4 12.5466 4 14C4 15.4534 5.1782 16.6316 6.63158 16.6316H15.0526C16.506 16.6316 17.6842 15.4534 17.6842 14C17.6842 12.5466 16.506 11.3684 15.0526 11.3684H6.63158Z" fill="#8C939F"/>
</g>
<defs>
<clipPath id="clip0_1_1818">
<rect width="20" height="20" fill="white" transform="translate(4 4)"/>
</clipPath>
</defs>
</svg>
