<svg width="28" height="28" viewBox="0 0 28 28" fill="none" xmlns="http://www.w3.org/2000/svg">
<g clip-path="url(#clip0_1_1907)">
<path d="M20.046 5.3H17.877C17.7243 4.83366 17.4439 4.41952 17.0675 4.10467C16.6911 3.78983 16.234 3.58691 15.748 3.519C15.5647 3.07079 15.2521 2.68729 14.8501 2.41735C14.448 2.14741 13.9747 2.00327 13.4905 2.00327C13.0063 2.00327 12.533 2.14741 12.1309 2.41735C11.7289 2.68729 11.4163 3.07079 11.233 3.519C10.7506 3.59039 10.2977 3.79488 9.92515 4.1095C9.55259 4.42411 9.27515 4.83639 9.124 5.3H6.955C6.17239 5.30079 5.42199 5.61169 4.86814 6.16461C4.31428 6.71753 4.00212 7.4674 4 8.25L4 23.816C4.00079 24.5995 4.31238 25.3506 4.86638 25.9046C5.42037 26.4586 6.17153 26.7702 6.955 26.771H20.046C20.8293 26.7699 21.5802 26.4582 22.134 25.9043C22.6878 25.3503 22.9992 24.5993 23 23.816V8.25C22.9979 7.46757 22.6859 6.71785 22.1322 6.16496C21.5786 5.61207 20.8284 5.30106 20.046 5.3ZM10.011 6.1C10.011 5.67566 10.1796 5.26869 10.4796 4.96863C10.7797 4.66857 11.1867 4.5 11.611 4.5C11.7235 4.4992 11.8326 4.46105 11.9211 4.39155C12.0096 4.32205 12.0725 4.22513 12.1 4.116C12.176 3.80513 12.3533 3.52837 12.6038 3.32924C12.8544 3.13011 13.164 3.01992 13.484 3.016C13.804 3.01118 14.116 3.11613 14.368 3.31337C14.62 3.51061 14.7968 3.78823 14.869 4.1C14.8936 4.21402 14.9568 4.31606 15.0479 4.38892C15.1389 4.46179 15.2524 4.50102 15.369 4.5H15.394C15.8183 4.5 16.2253 4.66857 16.5254 4.96863C16.8254 5.26869 16.994 5.67566 16.994 6.1V6.838H10.011V6.1ZM21.986 23.816C21.9855 24.3304 21.7809 24.8235 21.4172 25.1872C21.0535 25.5509 20.5604 25.7555 20.046 25.756H6.955C6.44064 25.7555 5.9475 25.5509 5.5838 25.1872C5.22009 24.8235 5.01553 24.3304 5.015 23.816V8.25C5.01553 7.73564 5.22009 7.24251 5.5838 6.8788C5.9475 6.51509 6.44064 6.31053 6.955 6.31H9V7.35C9 7.48473 9.05352 7.61394 9.14879 7.70921C9.24406 7.80448 9.37327 7.858 9.508 7.858H17.5C17.6347 7.858 17.7639 7.80448 17.8592 7.70921C17.9545 7.61394 18.008 7.48473 18.008 7.35V6.311H20.049C20.5634 6.31153 21.0565 6.51609 21.4202 6.8798C21.7839 7.24351 21.9885 7.73664 21.989 8.251L21.986 23.816Z" fill="#8C939F"/>
<path fill-rule="evenodd" clip-rule="evenodd" d="M18.6191 13.6175C18.8144 13.8127 18.8144 14.1293 18.6191 14.3246L12.8032 20.1406C12.7094 20.2343 12.5822 20.287 12.4496 20.287C12.317 20.287 12.1898 20.2343 12.0961 20.1405L9.14637 17.1905C8.95112 16.9953 8.95113 16.6787 9.1464 16.4834C9.34167 16.2882 9.65826 16.2882 9.85351 16.4835L12.4497 19.0799L17.912 13.6175C18.1073 13.4222 18.4239 13.4222 18.6191 13.6175Z" fill="#8C939F"/>
</g>
<defs>
<clipPath id="clip0_1_1907">
<rect width="19.001" height="24.771" fill="white" transform="translate(4 2)"/>
</clipPath>
</defs>
</svg>
